<?xml version="1.0" encoding="utf-8"?>
<!-- Generator: Adobe Illustrator 23.0.0, SVG Export Plug-In . SVG Version: 6.00 Build 0)  -->
<svg version="1.1" id="Layer_1" xmlns="http://www.w3.org/2000/svg" xmlns:xlink="http://www.w3.org/1999/xlink" x="0px" y="0px"
	 viewBox="0 0 471 471" style="enable-background:new 0 0 471 471;" xml:space="preserve">
<style type="text/css">
	.st0{fill:#FC5249;}
	.st1{fill:#FFFFFF;stroke:#FFFFFF;stroke-miterlimit:10;}
</style>
<title>Asset 1</title>
<g>
	<g id="Layer_1-2">
		<circle class="st0" cx="235.5" cy="235.5" r="235.5"/>
		<g>
			<circle class="st1" cx="126.7" cy="156.2" r="30.2"/>
			<path class="st1" d="M99.1,204.4l49.9,0.2c-0.8,42.8-0.7,74.8-0.5,88.5c0.1,3.6,0.3,10.4,6.1,15.3s14.5,5.3,18.9,5.2l0.3,35
				c-2.7,0-7,0.1-12.3-0.1c-7.1-0.2-12.3-0.6-12.6-0.7c-33.6-3.9-50.5-29.5-49.8-48.3C99.1,267.8,99.1,236.1,99.1,204.4z"/>
			<path class="st1" d="M286.2,122.4h-98.9v48.2h50.5v-0.1h58.4c31.8,0,47.6,20.5,47.6,61.5v2.8c0,22.7-4,39.3-11.9,49.8
				s-20,15.8-36.1,15.8h-58.1V205h-50.5v143.6h98.5c71.7,0,107.9-37.5,108.6-112.4v-1C394.4,160,358.4,122.4,286.2,122.4z"/>
		</g>
	</g>
</g>
</svg>
